:FULLY-SPECIFIED
:FORCE-ALL-JOINTS-BE-3DOF
:DEGREES
408
root 4.44593 16.1389 -10.9534 0.661041 -39.6611 -0.759876
lfemur -27.7352 9.30158 -10.4656
ltibia 48.4706 0 0
lfoot -14.7184 13.1587 0
ltoes 2.9952 0 0
rfemur -46.7726 -25.0444 26.0186
rtibia 85.8287 0 0
rfoot 2.97227 0.260968 0
rtoes 33.3008 0 0
lowerback 6.27592 4.70544 -0.82491
upperback 1.88137 6.13559 -2.35545
thorax -1.38852 3.05621 -2.40773
lowerneck -6.16873 3.08355 7.83053
upperneck 3.64034 3.49548 -0.804991
head 2.41658 1.83249 -1.47987
lclavicle -2.00075e-14 1.69282e-14 0
lhumerus -45.3782 -17.4274 94.2693
lradius 50.6967 0 0
lwrist 18.2953 0 0
lhand -21.0797 1.36326 0
lfingers 7.12502 0 0
lthumb 5.29735 31.277 0
rclavicle -2.00075e-14 1.69282e-14 0
rhumerus -45.2277 9.67893 -90.8636
rradius 65.7737 0 0
rwrist 7.98856 0 0
rhand -20.5754 -16.7658 0
rfingers 7.12502 0 0
rthumb 5.7841 -766.662 0
409
root 4.42956 16.1358 -10.9071 0.590483 -39.8791 -0.720476
lfemur -27.6166 9.17871 -10.4619
ltibia 48.2267 0 0
lfoot -14.7456 13.3066 0
ltoes 2.89969 0 0
rfemur -46.9358 -25.2057 25.9771
rtibia 86.1926 0 0
rfoot 3.1689 0.25859 0
rtoes 33.4402 0 0
lowerback 6.28516 4.7374 -0.854771
upperback 1.8742 6.17606 -2.38608
thorax -1.3997 3.07624 -2.42569
lowerneck -6.1522 3.12403 7.87772
upperneck 3.68009 3.54642 -0.833981
head 2.42831 1.85835 -1.49537
lclavicle -1.99913e-14 1.72377e-14 0
lhumerus -45.4139 -17.3821 94.2511
lradius 50.6334 0 0
lwrist 18.2703 0 0
lhand -21.0901 1.34137 0
lfingers 7.12502 0 0
lthumb 5.2873 31.2554 0
rclavicle -1.99913e-14 1.72377e-14 0
rhumerus -45.2963 9.66441 -90.8447
rradius 65.79 0 0
rwrist 7.99345 0 0
rhand -20.6688 -16.728 0
rfingers 7.12502 0 0
rthumb 5.69399 -766.629 0
410
root 4.41949 16.1339 -10.8785 0.547072 -40.0132 -0.696235
lfemur -27.5437 9.10312 -10.4596
ltibia 48.0766 0 0
lfoot -14.7623 13.3976 0
ltoes 2.84092 0 0
rfemur -47.0363 -25.3049 25.9516
rtibia 86.4164 0 0
rfoot 3.28988 0.257128 0
rtoes 33.526 0 0
lowerback 6.29084 4.75707 -0.873143
upperback 1.86978 6.20096 -2.40493
thorax -1.40658 3.08856 -2.43673
lowerneck -6.14204 3.14894 7.90675
upperneck 3.70455 3.57776 -0.851818
head 2.43553 1.87426 -1.50491
lclavicle -1.99813e-14 1.74282e-14 0
lhumerus -45.4358 -17.3542 94.2398
lradius 50.5945 0 0
lwrist 18.2549 0 0
lhand -21.0965 1.3279 0
lfingers 7.12502 0 0
lthumb 5.28112 31.2421 0
rclavicle -1.99813e-14 1.74282e-14 0
rhumerus -45.3385 9.65548 -90.8331
rradius 65.8001 0 0
rwrist 7.99646 0 0
rhand -20.7263 -16.7047 0
rfingers 7.12502 0 0
rthumb 5.63855 -766.609 0
411
root 4.41606 16.1333 -10.8688 0.532276 -40.0589 -0.687973
lfemur -27.5188 9.07735 -10.4588
ltibia 48.0255 0 0
lfoot -14.768 13.4286 0
ltoes 2.82089 0 0
rfemur -47.0705 -25.3387 25.9429
rtibia 86.4927 0 0
rfoot 3.33111 0.256629 0
rtoes 33.5552 0 0
lowerback 6.29278 4.76377 -0.879405
upperback 1.86828 6.20945 -2.41136
thorax -1.40892 3.09276 -2.4405
lowerneck -6.13857 3.15743 7.91665
upperneck 3.71289 3.58844 -0.857897
head 2.43799 1.87968 -1.50816
lclavicle -1.99779e-14 1.74931e-14 0
lhumerus -45.4433 -17.3447 94.236
lradius 50.5812 0 0
lwrist 18.2497 0 0
lhand -21.0987 1.32331 0
lfingers 7.12502 0 0
lthumb 5.27901 31.2376 0
rclavicle -1.99779e-14 1.74931e-14 0
rhumerus -45.3529 9.65244 -90.8291
rradius 65.8035 0 0
rwrist 7.99748 0 0
rhand -20.7459 -16.6968 0
rfingers 7.12502 0 0
rthumb 5.61965 -766.602 0
412
root 4.41108 16.1321 -10.8646 0.54029 -39.9484 -0.713274
lfemur -27.5706 9.10566 -10.4572
ltibia 48.0524 0 0
lfoot -14.7746 13.4009 0
ltoes 2.81916 0 0
rfemur -46.9978 -25.3109 25.9188
rtibia 86.4 0 0
rfoot 3.31223 0.223973 0
rtoes 33.4062 0 0
lowerback 6.28844 4.75725 -0.866389
upperback 1.86588 6.20157 -2.40365
thorax -1.40908 3.08879 -2.43921
lowerneck -6.1403 3.14869 7.90983
upperneck 3.70682 3.57729 -0.856099
head 2.43586 1.87399 -1.50676
lclavicle -2.00165e-14 1.74638e-14 0
lhumerus -45.4369 -17.3569 94.2485
lradius 50.586 0 0
lwrist 18.2239 0 0
lhand -21.1117 1.30509 0
lfingers 7.12502 0 0
lthumb 5.2665 31.2195 0
rclavicle -2.00165e-14 1.74638e-14 0
rhumerus -45.3598 9.63175 -90.8206
rradius 65.8027 0 0
rwrist 8.00274 0 0
rhand -20.7575 -16.7095 0
rfingers 7.12502 0 0
rthumb 5.6084 -766.615 0
413
root 4.39647 16.1287 -10.8524 0.563802 -39.6241 -0.787506
lfemur -27.7225 9.18872 -10.4524
ltibia 48.1312 0 0
lfoot -14.794 13.3196 0
ltoes 2.8141 0 0
rfemur -46.7845 -25.2293 25.8482
rtibia 86.1282 0 0
rfoot 3.25684 0.128165 0
rtoes 32.9689 0 0
lowerback 6.2757 4.73814 -0.8282
upperback 1.85882 6.17843 -2.38104
thorax -1.40954 3.07713 -2.43543
lowerneck -6.14536 3.12303 7.88981
upperneck 3.689 3.54458 -0.850824
head 2.42959 1.85728 -1.50267
lclavicle -2.01296e-14 1.73778e-14 0
lhumerus -45.4183 -17.3927 94.2852
lradius 50.6 0 0
lwrist 18.1482 0 0
lhand -21.1497 1.25162 0
lfingers 7.12502 0 0
lthumb 5.2298 31.1663 0
rclavicle -2.01296e-14 1.73778e-14 0
rhumerus -45.38 9.57105 -90.7955
rradius 65.8002 0 0
rwrist 8.01817 0 0
rhand -20.7917 -16.7469 0
rfingers 7.12502 0 0
rthumb 5.5754 -766.653 0
